Coordinates
version=1
nRows=7
nColumns=46
inDegrees=yes

Units are S.I. units (second, meters, Newtons, ...)
Angles are in degrees.

endheader
time	pelvis_tilt	pelvis_list	pelvis_rotation	pelvis_tx	pelvis_ty	pelvis_tz	bb_angle	bb_tx	bb_ty	bb_tz	hip_flexion_r	hip_adduction_r	hip_rotation_r	knee_angle_r	knee_angle_r_beta	ankle_angle_r	subtalar_angle_r	mtp_angle_r	crank_angle_r	hip_flexion_l	hip_adduction_l	hip_rotation_l	knee_angle_l	knee_angle_l_beta	ankle_angle_l	subtalar_angle_l	mtp_angle_l	crank_angle_l	lumbar_extension	lumbar_bending	lumbar_rotation	arm_flex_r	arm_add_r	arm_rot_r	elbow_flex_r	pro_sup_r	wrist_flex_r	wrist_dev_r	arm_flex_l	arm_add_l	arm_rot_l	elbow_flex_l	pro_sup_l	wrist_flex_l	wrist_dev_l
      0.00000000	    -16.37522740	     -3.35123167	     -4.19903791	      0.17096856	      1.03978987	     -0.32250782	      0.00000000	      0.50000000	      0.00000000	      0.25000000	     84.83334412	     -0.88077633	      0.35028519	     83.21626573	      1.45239783	      6.41797034	     -7.16958447	      0.00000000	      0.00000000	     57.50653455	    -11.55866208	      0.68696741	     80.40296018	      1.40329638	     -8.54434866	    -11.81307988	      0.00000000	      0.00000000	    -55.49812191	      0.75363248	      5.66628300	     89.74522992	     -0.28804088	     34.66352295	     25.24888531	     21.28326841	      0.00000000	      0.00000000	     89.47486590	     -0.67459951	     35.02941937	     24.78588982	     24.13182592	      0.00000000	      0.00000000
      0.00500000	    -16.41636986	     -3.30199623	     -4.12513154	      0.17088775	      1.03979439	     -0.32254760	      0.00000000	      0.50000000	      0.00000000	      0.25000000	     84.85958014	     -0.94864086	      0.40303675	     83.29218102	      1.45372280	      6.80266744	     -7.11778504	      0.00000000	      0.00000000	     57.57803721	    -11.45603571	      0.71208082	     80.25616903	      1.40073439	     -8.92241174	    -11.81306449	      0.00000000	      0.00000000	    -55.46601453	      0.76591455	      5.57883099	     89.74488050	     -0.09623289	     33.62261204	     25.09629941	     22.11696478	      0.00000000	      0.00000000	     89.47609642	     -0.53859690	     34.20631609	     24.59684350	     25.09297788	      0.00000000	      0.00000000
      0.01000000	    -16.31693921	     -3.33724699	     -4.13795813	      0.17080352	      1.04009608	     -0.32243873	      0.00000000	      0.50000000	      0.00000000	      0.25000000	     84.71097125	     -0.88136312	      0.39681439	     83.30947404	      1.45402462	      7.01106001	     -7.17989568	      0.00000000	      0.00000000	     57.48065409	    -11.51648236	      0.67906539	     80.11177912	      1.39821432	     -9.41076227	    -12.13190166	      0.00000000	      0.00000000	    -55.67012065	      0.75862545	      5.67116315	     89.74374119	     -0.10041122	     32.62733464	     25.54243041	     23.00147067	      0.00000000	      0.00000000	     89.45963191	     -0.53191037	     33.35079114	     25.34436269	     25.95187076	      0.00000000	      0.00000000
      0.01500000	    -16.47856127	     -3.26291131	     -4.13797827	      0.17072165	      1.03971463	     -0.32260546	      0.00000000	      0.50000000	      0.00000000	      0.25000000	     84.88724172	     -0.89618346	      0.53369584	     83.40745171	      1.45573465	      7.41719319	     -6.88236319	      0.00000000	      0.00000000	     57.65181347	    -11.43348037	      0.71453466	     80.05028698	      1.39714107	     -9.40196691	    -11.75585933	      0.00000000	      0.00000000	    -55.41379259	      0.74975032	      5.65772314	     89.74139289	     -0.60034722	     34.95970186	     25.46195025	     21.72475163	      0.00000000	      0.00000000	     89.48930433	     -0.63370213	     34.92749846	     24.50679435	     25.69440874	      0.00000000	      0.00000000
      0.02000000	    -16.59432737	     -3.21311657	     -4.14034392	      0.17052316	      1.03989487	     -0.32233251	      0.00000000	      0.50000000	      0.00000000	      0.25000000	     85.02961973	     -0.88822644	      0.57461857	     83.46129437	      1.45667438	      7.43241411	     -7.09376405	      0.00000000	      0.00000000	     57.75507876	    -11.38537095	      0.71036315	     79.94702054	      1.39533874	     -9.59296408	    -11.78748478	      0.00000000	      0.00000000	    -55.26520320	      0.74019434	      5.59620884	     89.74481410	     -0.27255076	     34.12949927	     25.03465595	     22.36890095	      0.00000000	      0.00000000	     89.48102494	     -0.55407353	     34.20102736	     24.46418114	     26.39961112	      0.00000000	      0.00000000
      0.02500000	    -16.57524996	     -3.22763645	     -4.15720588	      0.17051147	      1.03994285	     -0.32224180	      0.00000000	      0.50000000	      0.00000000	      0.25000000	     85.03858854	     -0.85085005	      0.58618564	     83.52018845	      1.45770228	      7.48179053	     -7.05035063	      0.00000000	      0.00000000	     57.71652883	    -11.41440443	      0.72709126	     79.89332418	      1.39440156	     -9.57965711	    -11.70939763	      0.00000000	      0.00000000	    -55.30687348	      0.73492937	      5.58910865	     89.74283992	      0.02923687	     32.61039853	     24.94845737	     23.46826189	      0.00000000	      0.00000000	     89.48693745	     -0.41469320	     33.43383815	     24.09495496	     26.92463164	      0.00000000	      0.00000000
      0.03000000	    -16.52713317	     -3.16219293	     -4.14766802	      0.17054678	      1.04000263	     -0.32224415	      0.00000000	      0.50000000	      0.00000000	      0.25000000	     85.07216158	     -0.88430548	      0.65866143	     83.58306378	      1.45879966	      7.31848634	     -7.06720523	      0.00000000	      0.00000000	     57.61650492	    -11.34367032	      0.69699550	     79.85260225	      1.39369083	     -9.52024140	    -11.64972737	      0.00000000	      0.00000000	    -55.31925742	      0.66627961	      5.50575721	     89.74569124	     -0.41079576	     35.25179504	     24.98631769	     22.27490956	      0.00000000	      0.00000000	     89.49409488	     -0.74088448	     35.19287085	     24.17379737	     26.86257026	      0.00000000	      0.00000000
